
<svg width="95px" height="95px" viewBox="0 0 95 95" version="1.1" xmlns="http://www.w3.org/2000/svg" xmlns:xlink="http://www.w3.org/1999/xlink">
    <g id="Page-1" stroke="none" stroke-width="1" fill="none" fill-rule="evenodd">
        <g id="Project-Page" transform="translate(-535.000000, -464.000000)" fill="#000000" fill-rule="nonzero">
            <path d="M543.5,542 C548.033333,542 552,545.966667 552,550.5 C552,555.033333 548.033333,559 543.5,559 C538.966667,559 535,555.033333 535,550.5 C535,545.966667 538.966667,542 543.5,542 Z M621.5,542 C626.033333,542 630,545.966667 630,550.5 C630,555.033333 626.033333,559 621.5,559 C616.966667,559 613,555.033333 613,550.5 C613,545.966667 616.966667,542 621.5,542 Z M601.5,523 C606.033333,523 610,526.966667 610,531.5 C610,536.033333 606.033333,540 601.5,540 C596.966667,540 593,536.033333 593,531.5 C593,526.966667 596.966667,523 601.5,523 Z M563.5,523 C568.033333,523 572,526.966667 572,531.5 C572,536.033333 568.033333,540 563.5,540 C558.966667,540 555,536.033333 555,531.5 C555,526.966667 558.966667,523 563.5,523 Z M601.5,484 C606.033333,484 610,487.966667 610,492.5 C610,497.033333 606.033333,501 601.5,501 C596.966667,501 593,497.033333 593,492.5 C593,487.966667 596.966667,484 601.5,484 Z M582.5,503 C587.033333,503 591,506.966667 591,511.5 C591,516.033333 587.033333,520 582.5,520 C577.966667,520 574,516.033333 574,511.5 C574,506.966667 577.966667,503 582.5,503 Z M543.5,464 C548.033333,464 552,467.966667 552,472.5 C552,477.033333 548.033333,481 543.5,481 C538.966667,481 535,477.033333 535,472.5 C535,467.966667 538.966667,464 543.5,464 Z M621.5,464 C626.033333,464 630,467.966667 630,472.5 C630,477.033333 626.033333,481 621.5,481 C616.966667,481 613,477.033333 613,472.5 C613,467.966667 616.966667,464 621.5,464 Z M563.5,484 C568.033333,484 572,487.966667 572,492.5 C572,497.033333 568.033333,501 563.5,501 C558.966667,501 555,497.033333 555,492.5 C555,487.966667 558.966667,484 563.5,484 Z" id="Shape"></path>
        </g>
    </g>
</svg>